<?xml version="1.0" encoding="UTF-8" standalone="no"?><!DOCTYPE svg PUBLIC "-//W3C//DTD SVG 1.1//EN" "http://www.w3.org/Graphics/SVG/1.1/DTD/svg11.dtd"><!-- Generated by graphviz version 2.40.1 (20161225.0304)
 --><!-- Title: classes_janis_assistant_containerregistry Pages: 1 --><svg xmlns="http://www.w3.org/2000/svg" xmlns:xlink="http://www.w3.org/1999/xlink" width="700pt" height="540pt" viewBox="0.00 0.00 699.68 539.80">
<g id="graph0" class="graph" transform="scale(1 1) rotate(0) translate(4 535.8)">
<title>classes_janis_assistant_containerregistry</title>
<polygon fill="#ffffff" stroke="transparent" points="-4,4 -4,-535.8 695.6754,-535.8 695.6754,4 -4,4"/>
<!-- 20 -->
<g id="node1" class="node">
<title>20</title>
<polygon fill="none" stroke="#000000" points="0,-127.9 0,-403.9 266.3844,-403.9 266.3844,-127.9 0,-127.9"/>
<text text-anchor="middle" x="133.1922" y="-387.3" font-family="Times,serif" font-size="14.00" fill="#000000">ContainerInfo</text>
<polyline fill="none" stroke="#000000" points="0,-379.1 266.3844,-379.1 "/>
<text text-anchor="start" x="8" y="-362.5" font-family="Times,serif" font-size="14.00" fill="#000000">CONTAINER_INVALID_CHARS</text>
<text text-anchor="start" x="8" y="-345.7" font-family="Times,serif" font-size="14.00" fill="#000000">chash</text>
<text text-anchor="start" x="8" y="-328.9" font-family="Times,serif" font-size="14.00" fill="#000000">host</text>
<text text-anchor="start" x="8" y="-312.1" font-family="Times,serif" font-size="14.00" fill="#000000">image : str</text>
<text text-anchor="start" x="8" y="-295.3" font-family="Times,serif" font-size="14.00" fill="#000000">repository</text>
<text text-anchor="start" x="8" y="-278.5" font-family="Times,serif" font-size="14.00" fill="#000000">tag</text>
<polyline fill="none" stroke="#000000" points="0,-270.3 266.3844,-270.3 "/>
<text text-anchor="start" x="8" y="-253.7" font-family="Times,serif" font-size="14.00" fill="#000000">convert_to_filename(container)</text>
<text text-anchor="start" x="8" y="-236.9" font-family="Times,serif" font-size="14.00" fill="#000000">deconstruct_image_name(name)</text>
<text text-anchor="start" x="8" y="-220.1" font-family="Times,serif" font-size="14.00" fill="#000000">is_host_name(potentialhost)</text>
<text text-anchor="start" x="8" y="-203.3" font-family="Times,serif" font-size="14.00" fill="#000000">parse(container)</text>
<text text-anchor="start" x="8" y="-186.5" font-family="Times,serif" font-size="14.00" fill="#000000">repo_and_image(empty_repo)</text>
<text text-anchor="start" x="8" y="-169.7" font-family="Times,serif" font-size="14.00" fill="#000000">to_filename()</text>
<text text-anchor="start" x="8" y="-152.9" font-family="Times,serif" font-size="14.00" fill="#000000">to_string(host, repository, image, tag, chash)</text>
<text text-anchor="start" x="8" y="-136.1" font-family="Times,serif" font-size="14.00" fill="#000000">validate_docker_digest(chash)</text>
</g>
<!-- 21 -->
<g id="node2" class="node">
<title>21</title>
<polygon fill="none" stroke="#000000" points="189.8696,-440.9 189.8696,-531.3 308.5148,-531.3 308.5148,-440.9 189.8696,-440.9"/>
<text text-anchor="middle" x="249.1922" y="-514.7" font-family="Times,serif" font-size="14.00" fill="#000000">ContainerRegistry</text>
<polyline fill="none" stroke="#000000" points="189.8696,-506.5 308.5148,-506.5 "/>
<polyline fill="none" stroke="#000000" points="189.8696,-482.5 308.5148,-482.5 "/>
<text text-anchor="start" x="197.8696" y="-465.9" font-family="Times,serif" font-size="14.00" fill="#000000">from_host(host)</text>
<text text-anchor="start" x="197.8696" y="-449.1" font-family="Times,serif" font-size="14.00" fill="#000000">to_registry()</text>
</g>
<!-- 20&#45;&gt;21 -->
<g id="edge6" class="edge">
<title>20-&gt;21</title>
<path fill="none" stroke="#000000" d="M205.9981,-404.1056C211.0124,-413.6242 215.8685,-422.8423 220.4023,-431.4488"/>
<polygon fill="none" stroke="#000000" points="217.4303,-433.3167 225.1877,-440.5329 223.6235,-430.0541 217.4303,-433.3167"/>
</g>
<!-- 22 -->
<g id="node3" class="node">
<title>22</title>
<polygon fill="none" stroke="#000000" points="284.1003,-195.5 284.1003,-336.3 446.2841,-336.3 446.2841,-195.5 284.1003,-195.5"/>
<text text-anchor="middle" x="365.1922" y="-319.7" font-family="Times,serif" font-size="14.00" fill="#000000">ContainerRegistryBase</text>
<polyline fill="none" stroke="#000000" points="284.1003,-311.5 446.2841,-311.5 "/>
<polyline fill="none" stroke="#000000" points="284.1003,-287.5 446.2841,-287.5 "/>
<text text-anchor="start" x="292.1003" y="-270.9" font-family="Times,serif" font-size="14.00" fill="#000000">build_request(info, token)</text>
<text text-anchor="start" x="292.1003" y="-254.1" font-family="Times,serif" font-size="14.00" fill="#000000">build_token_request(info)</text>
<text text-anchor="start" x="292.1003" y="-237.3" font-family="Times,serif" font-size="14.00" fill="#000000">get_digest(info)</text>
<text text-anchor="start" x="292.1003" y="-220.5" font-family="Times,serif" font-size="14.00" fill="#000000">get_token(info)</text>
<text text-anchor="start" x="292.1003" y="-203.7" font-family="Times,serif" font-size="14.00" fill="#000000">host_name(info)</text>
</g>
<!-- 22&#45;&gt;21 -->
<g id="edge2" class="edge">
<title>22-&gt;21</title>
<path fill="none" stroke="#000000" d="M328.0104,-336.4813C311.7456,-367.3563 292.9624,-403.012 277.813,-431.7699"/>
<polygon fill="none" stroke="#000000" points="274.594,-430.371 273.0298,-440.8497 280.7872,-433.6336 274.594,-430.371"/>
</g>
<!-- 30 -->
<g id="node4" class="node">
<title>30</title>
<polygon fill="none" stroke="#000000" points="3.0884,-8.9 3.0884,-82.5 165.296,-82.5 165.296,-8.9 3.0884,-8.9"/>
<text text-anchor="middle" x="84.1922" y="-65.9" font-family="Times,serif" font-size="14.00" fill="#000000">CustomContainerRegistry</text>
<polyline fill="none" stroke="#000000" points="3.0884,-57.7 165.296,-57.7 "/>
<polyline fill="none" stroke="#000000" points="3.0884,-33.7 165.296,-33.7 "/>
<text text-anchor="start" x="11.0884" y="-17.1" font-family="Times,serif" font-size="14.00" fill="#000000">host_name(info)</text>
</g>
<!-- 30&#45;&gt;22 -->
<g id="edge1" class="edge">
<title>30-&gt;22</title>
<path fill="none" stroke="#000000" d="M155.0287,-82.7214C161.4595,-85.7622 167.9138,-88.7001 174.1922,-91.4 217.971,-110.2262 237.7939,-97.8639 275.1922,-127.4 295.357,-143.3256 312.4319,-165.0709 326.1095,-186.6108"/>
<polygon fill="none" stroke="#000000" points="323.1524,-188.4836 331.3761,-195.1636 329.113,-184.8133 323.1524,-188.4836"/>
</g>
<!-- 42 -->
<g id="node5" class="node">
<title>42</title>
<polygon fill="none" stroke="#000000" points="183.2181,-.5 183.2181,-90.9 367.1663,-90.9 367.1663,-.5 183.2181,-.5"/>
<text text-anchor="middle" x="275.1922" y="-74.3" font-family="Times,serif" font-size="14.00" fill="#000000">DockerHubContainerRegistry</text>
<polyline fill="none" stroke="#000000" points="183.2181,-66.1 367.1663,-66.1 "/>
<polyline fill="none" stroke="#000000" points="183.2181,-42.1 367.1663,-42.1 "/>
<text text-anchor="start" x="191.2181" y="-25.5" font-family="Times,serif" font-size="14.00" fill="#000000">build_token_request(info)</text>
<text text-anchor="start" x="191.2181" y="-8.7" font-family="Times,serif" font-size="14.00" fill="#000000">host_name(info)</text>
</g>
<!-- 42&#45;&gt;22 -->
<g id="edge3" class="edge">
<title>42-&gt;22</title>
<path fill="none" stroke="#000000" d="M293.7311,-91.0586C304.9246,-118.4452 319.5058,-154.1206 332.5757,-186.0983"/>
<polygon fill="none" stroke="#000000" points="329.374,-187.516 336.3973,-195.4485 335.8537,-184.8676 329.374,-187.516"/>
</g>
<!-- 54 -->
<g id="node6" class="node">
<title>54</title>
<polygon fill="none" stroke="#000000" points="385.3787,-8.9 385.3787,-82.5 525.0057,-82.5 525.0057,-8.9 385.3787,-8.9"/>
<text text-anchor="middle" x="455.1922" y="-65.9" font-family="Times,serif" font-size="14.00" fill="#000000">GcrContainerRegistry</text>
<polyline fill="none" stroke="#000000" points="385.3787,-57.7 525.0057,-57.7 "/>
<polyline fill="none" stroke="#000000" points="385.3787,-33.7 525.0057,-33.7 "/>
<text text-anchor="start" x="393.3787" y="-17.1" font-family="Times,serif" font-size="14.00" fill="#000000">host_name(info)</text>
</g>
<!-- 54&#45;&gt;22 -->
<g id="edge4" class="edge">
<title>54-&gt;22</title>
<path fill="none" stroke="#000000" d="M440.1282,-82.5565C428.5984,-110.7663 412.2699,-150.7165 397.7969,-186.1272"/>
<polygon fill="none" stroke="#000000" points="394.5097,-184.9191 393.9661,-195.5 400.9893,-187.5675 394.5097,-184.9191"/>
</g>
<!-- 96 -->
<g id="node7" class="node">
<title>96</title>
<polygon fill="none" stroke="#000000" points="542.709,-8.9 542.709,-82.5 691.6754,-82.5 691.6754,-8.9 542.709,-8.9"/>
<text text-anchor="middle" x="617.1922" y="-65.9" font-family="Times,serif" font-size="14.00" fill="#000000">QuayContainerRegistry</text>
<polyline fill="none" stroke="#000000" points="542.709,-57.7 691.6754,-57.7 "/>
<polyline fill="none" stroke="#000000" points="542.709,-33.7 691.6754,-33.7 "/>
<text text-anchor="start" x="550.709" y="-17.1" font-family="Times,serif" font-size="14.00" fill="#000000">host_name(info)</text>
</g>
<!-- 96&#45;&gt;22 -->
<g id="edge5" class="edge">
<title>96-&gt;22</title>
<path fill="none" stroke="#000000" d="M575.0131,-82.5565C541.9052,-111.4865 494.6665,-152.7641 453.3917,-188.8304"/>
<polygon fill="none" stroke="#000000" points="450.9862,-186.2844 445.759,-195.5 455.5922,-191.5556 450.9862,-186.2844"/>
</g>
</g>
</svg>