<?xml version="1.0" encoding="UTF-8" standalone="no"?><!DOCTYPE svg PUBLIC "-//W3C//DTD SVG 1.1//EN" "http://www.w3.org/Graphics/SVG/1.1/DTD/svg11.dtd"><!-- Generated by graphviz version 2.40.1 (20161225.0304)
 --><!-- Title: classes_janis_assistant_filescheme Pages: 1 --><svg xmlns="http://www.w3.org/2000/svg" xmlns:xlink="http://www.w3.org/1999/xlink" width="1428pt" height="580pt" viewBox="0.00 0.00 1428.15 580.40">
<g id="graph0" class="graph" transform="scale(1 1) rotate(0) translate(4 576.4)">
<title>classes_janis_assistant_filescheme</title>
<polygon fill="#ffffff" stroke="transparent" points="-4,4 -4,-576.4 1424.1481,-576.4 1424.1481,4 -4,4"/>
<!-- 50 -->
<g id="node1" class="node">
<title>50</title>
<polygon fill="none" stroke="#000000" points="558.7145,-279.1 558.7145,-571.9 828.1481,-571.9 828.1481,-279.1 558.7145,-279.1"/>
<text text-anchor="middle" x="693.4313" y="-555.3" font-family="Times,serif" font-size="14.00" fill="#000000">FileScheme</text>
<polyline fill="none" stroke="#000000" points="558.7145,-547.1 828.1481,-547.1 "/>
<text text-anchor="start" x="566.7145" y="-530.5" font-family="Times,serif" font-size="14.00" fill="#000000">fstype</text>
<text text-anchor="start" x="566.7145" y="-513.7" font-family="Times,serif" font-size="14.00" fill="#000000">identifier</text>
<polyline fill="none" stroke="#000000" points="558.7145,-505.5 828.1481,-505.5 "/>
<text text-anchor="start" x="566.7145" y="-488.9" font-family="Times,serif" font-size="14.00" fill="#000000">cp_from(source, dest, force, report_progress)</text>
<text text-anchor="start" x="566.7145" y="-472.1" font-family="Times,serif" font-size="14.00" fill="#000000">cp_to(source, dest, force, report_progress)</text>
<text text-anchor="start" x="566.7145" y="-455.3" font-family="Times,serif" font-size="14.00" fill="#000000">exists(path)</text>
<text text-anchor="start" x="566.7145" y="-438.5" font-family="Times,serif" font-size="14.00" fill="#000000">get_file_size(path)</text>
<text text-anchor="start" x="566.7145" y="-421.7" font-family="Times,serif" font-size="14.00" fill="#000000">get_filescheme_for_url(url)</text>
<text text-anchor="start" x="566.7145" y="-404.9" font-family="Times,serif" font-size="14.00" fill="#000000">get_type(identifier)</text>
<text text-anchor="start" x="566.7145" y="-388.1" font-family="Times,serif" font-size="14.00" fill="#000000">get_type_by_prefix(prefix)</text>
<text text-anchor="start" x="566.7145" y="-371.3" font-family="Times,serif" font-size="14.00" fill="#000000">id()</text>
<text text-anchor="start" x="566.7145" y="-354.5" font-family="Times,serif" font-size="14.00" fill="#000000">is_local_path(prefix)</text>
<text text-anchor="start" x="566.7145" y="-337.7" font-family="Times,serif" font-size="14.00" fill="#000000">is_valid_prefix(prefix)</text>
<text text-anchor="start" x="566.7145" y="-320.9" font-family="Times,serif" font-size="14.00" fill="#000000">last_modified(path)</text>
<text text-anchor="start" x="566.7145" y="-304.1" font-family="Times,serif" font-size="14.00" fill="#000000">mkdirs(directory)</text>
<text text-anchor="start" x="566.7145" y="-287.3" font-family="Times,serif" font-size="14.00" fill="#000000">rm_dir(directory)</text>
</g>
<!-- 51 -->
<g id="node2" class="node">
<title>51</title>
<polygon fill="none" stroke="#000000" points="0,-84.5 0,-158.1 110.8626,-158.1 110.8626,-84.5 0,-84.5"/>
<text text-anchor="middle" x="55.4313" y="-141.5" font-family="Times,serif" font-size="14.00" fill="#000000">FileSchemeType</text>
<polyline fill="none" stroke="#000000" points="0,-133.3 110.8626,-133.3 "/>
<polyline fill="none" stroke="#000000" points="0,-109.3 110.8626,-109.3 "/>
<text text-anchor="middle" x="55.4313" y="-92.7" font-family="Times,serif" font-size="14.00" fill="#000000"> </text>
</g>
<!-- 51&#45;&gt;50 -->
<g id="edge6" class="edge">
<title>51-&gt;50</title>
<path fill="none" stroke="#000000" d="M66.4671,-158.282C76.2929,-185.2114 93.2297,-220.6699 119.4313,-242.6 241.9337,-345.1317 422.5865,-390.4229 548.3929,-410.2785"/>
<polygon fill="none" stroke="#000000" points="548.0742,-413.7706 558.491,-411.8363 549.1415,-406.8525 548.0742,-413.7706"/>
</g>
<!-- 53 -->
<g id="node3" class="node">
<title>53</title>
<polygon fill="none" stroke="#000000" points="128.7145,-.5 128.7145,-242.1 398.1481,-242.1 398.1481,-.5 128.7145,-.5"/>
<text text-anchor="middle" x="263.4313" y="-225.5" font-family="Times,serif" font-size="14.00" fill="#000000">GCSFileScheme</text>
<polyline fill="none" stroke="#000000" points="128.7145,-217.3 398.1481,-217.3 "/>
<polyline fill="none" stroke="#000000" points="128.7145,-193.3 398.1481,-193.3 "/>
<text text-anchor="start" x="136.7145" y="-176.7" font-family="Times,serif" font-size="14.00" fill="#000000">check_if_has_gcp()</text>
<text text-anchor="start" x="136.7145" y="-159.9" font-family="Times,serif" font-size="14.00" fill="#000000">cp_from(source, dest, force, report_progress)</text>
<text text-anchor="start" x="136.7145" y="-143.1" font-family="Times,serif" font-size="14.00" fill="#000000">cp_to(source, dest, force, report_progress)</text>
<text text-anchor="start" x="136.7145" y="-126.3" font-family="Times,serif" font-size="14.00" fill="#000000">exists(path)</text>
<text text-anchor="start" x="136.7145" y="-109.5" font-family="Times,serif" font-size="14.00" fill="#000000">get_blob_from_link(link)</text>
<text text-anchor="start" x="136.7145" y="-92.7" font-family="Times,serif" font-size="14.00" fill="#000000">get_file_size(path)</text>
<text text-anchor="start" x="136.7145" y="-75.9" font-family="Times,serif" font-size="14.00" fill="#000000">get_public_client()</text>
<text text-anchor="start" x="136.7145" y="-59.1" font-family="Times,serif" font-size="14.00" fill="#000000">is_valid_prefix(prefix)</text>
<text text-anchor="start" x="136.7145" y="-42.3" font-family="Times,serif" font-size="14.00" fill="#000000">mkdirs(directory)</text>
<text text-anchor="start" x="136.7145" y="-25.5" font-family="Times,serif" font-size="14.00" fill="#000000">parse_gcs_link(gcs_link)</text>
<text text-anchor="start" x="136.7145" y="-8.7" font-family="Times,serif" font-size="14.00" fill="#000000">rm_dir(directory)</text>
</g>
<!-- 53&#45;&gt;50 -->
<g id="edge2" class="edge">
<title>53-&gt;50</title>
<path fill="none" stroke="#000000" d="M398.5356,-236.7065C401.1776,-238.7014 403.8112,-240.6678 406.4313,-242.6 451.7566,-276.0258 503.1171,-309.9164 549.735,-339.2917"/>
<polygon fill="none" stroke="#000000" points="548.0522,-342.3678 558.3819,-344.7231 551.7755,-336.4402 548.0522,-342.3678"/>
</g>
<!-- 58 -->
<g id="node4" class="node">
<title>58</title>
<polygon fill="none" stroke="#000000" points="415.7145,-25.7 415.7145,-216.9 685.1481,-216.9 685.1481,-25.7 415.7145,-25.7"/>
<text text-anchor="middle" x="550.4313" y="-200.3" font-family="Times,serif" font-size="14.00" fill="#000000">HTTPFileScheme</text>
<polyline fill="none" stroke="#000000" points="415.7145,-192.1 685.1481,-192.1 "/>
<polyline fill="none" stroke="#000000" points="415.7145,-168.1 685.1481,-168.1 "/>
<text text-anchor="start" x="423.7145" y="-151.5" font-family="Times,serif" font-size="14.00" fill="#000000">cp_from(source, dest, force, report_progress)</text>
<text text-anchor="start" x="423.7145" y="-134.7" font-family="Times,serif" font-size="14.00" fill="#000000">cp_to(source, dest, force, report_progress)</text>
<text text-anchor="start" x="423.7145" y="-117.9" font-family="Times,serif" font-size="14.00" fill="#000000">exists(path)</text>
<text text-anchor="start" x="423.7145" y="-101.1" font-family="Times,serif" font-size="14.00" fill="#000000">get_file_size(path)</text>
<text text-anchor="start" x="423.7145" y="-84.3" font-family="Times,serif" font-size="14.00" fill="#000000">is_valid_prefix(prefix)</text>
<text text-anchor="start" x="423.7145" y="-67.5" font-family="Times,serif" font-size="14.00" fill="#000000">last_modified(path)</text>
<text text-anchor="start" x="423.7145" y="-50.7" font-family="Times,serif" font-size="14.00" fill="#000000">mkdirs(directory)</text>
<text text-anchor="start" x="423.7145" y="-33.9" font-family="Times,serif" font-size="14.00" fill="#000000">rm_dir(directory)</text>
</g>
<!-- 58&#45;&gt;50 -->
<g id="edge3" class="edge">
<title>58-&gt;50</title>
<path fill="none" stroke="#000000" d="M595.4811,-217.1332C603.3589,-233.8915 611.7354,-251.7106 620.1449,-269.5998"/>
<polygon fill="none" stroke="#000000" points="617.1213,-271.395 624.5431,-278.9559 623.4562,-268.417 617.1213,-271.395"/>
</g>
<!-- 80 -->
<g id="node5" class="node">
<title>80</title>
<polygon fill="none" stroke="#000000" points="702.7145,-17.3 702.7145,-225.3 972.1481,-225.3 972.1481,-17.3 702.7145,-17.3"/>
<text text-anchor="middle" x="837.4313" y="-208.7" font-family="Times,serif" font-size="14.00" fill="#000000">LocalFileScheme</text>
<polyline fill="none" stroke="#000000" points="702.7145,-200.5 972.1481,-200.5 "/>
<polyline fill="none" stroke="#000000" points="702.7145,-176.5 972.1481,-176.5 "/>
<text text-anchor="start" x="710.7145" y="-159.9" font-family="Times,serif" font-size="14.00" fill="#000000">cp_from(source, dest, force, report_progress)</text>
<text text-anchor="start" x="710.7145" y="-143.1" font-family="Times,serif" font-size="14.00" fill="#000000">cp_to(source, dest, force, report_progress)</text>
<text text-anchor="start" x="710.7145" y="-126.3" font-family="Times,serif" font-size="14.00" fill="#000000">exists(path)</text>
<text text-anchor="start" x="710.7145" y="-109.5" font-family="Times,serif" font-size="14.00" fill="#000000">get_file_size(path)</text>
<text text-anchor="start" x="710.7145" y="-92.7" font-family="Times,serif" font-size="14.00" fill="#000000">is_valid_prefix(prefix)</text>
<text text-anchor="start" x="710.7145" y="-75.9" font-family="Times,serif" font-size="14.00" fill="#000000">link_copy_or_fail(source, dest, force)</text>
<text text-anchor="start" x="710.7145" y="-59.1" font-family="Times,serif" font-size="14.00" fill="#000000">mkdirs(directory)</text>
<text text-anchor="start" x="710.7145" y="-42.3" font-family="Times,serif" font-size="14.00" fill="#000000">prepare_path(path)</text>
<text text-anchor="start" x="710.7145" y="-25.5" font-family="Times,serif" font-size="14.00" fill="#000000">rm_dir(directory)</text>
</g>
<!-- 80&#45;&gt;50 -->
<g id="edge4" class="edge">
<title>80-&gt;50</title>
<path fill="none" stroke="#000000" d="M788.0761,-225.5628C781.3339,-239.8059 774.2966,-254.672 767.2362,-269.5871"/>
<polygon fill="none" stroke="#000000" points="763.9547,-268.339 762.8396,-278.875 770.2817,-271.3341 763.9547,-268.339"/>
</g>
<!-- 103 -->
<g id="node6" class="node">
<title>103</title>
<polygon fill="none" stroke="#000000" points="989.6788,-67.7 989.6788,-174.9 1133.1838,-174.9 1133.1838,-67.7 989.6788,-67.7"/>
<text text-anchor="middle" x="1061.4313" y="-158.3" font-family="Times,serif" font-size="14.00" fill="#000000">S3FileScheme</text>
<polyline fill="none" stroke="#000000" points="989.6788,-150.1 1133.1838,-150.1 "/>
<polyline fill="none" stroke="#000000" points="989.6788,-126.1 1133.1838,-126.1 "/>
<text text-anchor="start" x="997.6788" y="-109.5" font-family="Times,serif" font-size="14.00" fill="#000000">get_file_size(path)</text>
<text text-anchor="start" x="997.6788" y="-92.7" font-family="Times,serif" font-size="14.00" fill="#000000">is_valid_prefix(prefix)</text>
<text text-anchor="start" x="997.6788" y="-75.9" font-family="Times,serif" font-size="14.00" fill="#000000">mkdirs(directory)</text>
</g>
<!-- 103&#45;&gt;50 -->
<g id="edge5" class="edge">
<title>103-&gt;50</title>
<path fill="none" stroke="#000000" d="M1032.7295,-175.0699C1019.0938,-197.5594 1001.4013,-222.9712 981.4313,-242.6 939.2908,-284.0205 886.2588,-320.9335 837.2232,-350.562"/>
<polygon fill="none" stroke="#000000" points="835.221,-347.6813 828.4371,-355.8195 838.8154,-353.688 835.221,-347.6813"/>
</g>
<!-- 104 -->
<g id="node7" class="node">
<title>104</title>
<polygon fill="none" stroke="#000000" points="1150.7145,-33.7 1150.7145,-208.9 1420.1481,-208.9 1420.1481,-33.7 1150.7145,-33.7"/>
<text text-anchor="middle" x="1285.4313" y="-192.3" font-family="Times,serif" font-size="14.00" fill="#000000">SSHFileScheme</text>
<polyline fill="none" stroke="#000000" points="1150.7145,-184.1 1420.1481,-184.1 "/>
<text text-anchor="start" x="1158.7145" y="-167.5" font-family="Times,serif" font-size="14.00" fill="#000000">connectionstring</text>
<polyline fill="none" stroke="#000000" points="1150.7145,-159.3 1420.1481,-159.3 "/>
<text text-anchor="start" x="1158.7145" y="-142.7" font-family="Times,serif" font-size="14.00" fill="#000000">cp_from(source, dest, force, report_progress)</text>
<text text-anchor="start" x="1158.7145" y="-125.9" font-family="Times,serif" font-size="14.00" fill="#000000">cp_to(source, dest, force, report_progress)</text>
<text text-anchor="start" x="1158.7145" y="-109.1" font-family="Times,serif" font-size="14.00" fill="#000000">get_file_size(path)</text>
<text text-anchor="start" x="1158.7145" y="-92.3" font-family="Times,serif" font-size="14.00" fill="#000000">is_valid_prefix(prefix)</text>
<text text-anchor="start" x="1158.7145" y="-75.5" font-family="Times,serif" font-size="14.00" fill="#000000">makedir(location)</text>
<text text-anchor="start" x="1158.7145" y="-58.7" font-family="Times,serif" font-size="14.00" fill="#000000">mkdirs(directory)</text>
<text text-anchor="start" x="1158.7145" y="-41.9" font-family="Times,serif" font-size="14.00" fill="#000000">rm_dir(directory)</text>
</g>
<!-- 104&#45;&gt;50 -->
<g id="edge1" class="edge">
<title>104-&gt;50</title>
<path fill="none" stroke="#000000" d="M1190.1001,-209.1707C1174.7458,-221.2278 1158.5763,-232.8088 1142.4313,-242.6 1046.5074,-300.7735 928.7592,-347.9499 837.9132,-379.8115"/>
<polygon fill="none" stroke="#000000" points="836.6629,-376.5407 828.3715,-383.1364 838.9664,-383.1509 836.6629,-376.5407"/>
</g>
</g>
</svg>