<?xml version="1.0" encoding="UTF-8" standalone="no"?><!DOCTYPE svg PUBLIC "-//W3C//DTD SVG 1.1//EN" "http://www.w3.org/Graphics/SVG/1.1/DTD/svg11.dtd"><!-- Generated by graphviz version 2.40.1 (20161225.0304)
 --><!-- Title: classes_janis_assistant_janis_config Pages: 1 --><svg xmlns="http://www.w3.org/2000/svg" xmlns:xlink="http://www.w3.org/1999/xlink" width="1574pt" height="845pt" viewBox="0.00 0.00 1574.39 844.80">
<g id="graph0" class="graph" transform="scale(1 1) rotate(0) translate(4 840.8)">
<title>classes_janis_assistant_janis_config</title>
<polygon fill="#ffffff" stroke="transparent" points="-4,4 -4,-840.8 1570.3865,-840.8 1570.3865,4 -4,4"/>
<!-- 34 -->
<g id="node1" class="node">
<title>34</title>
<polygon fill="none" stroke="#000000" points="281.9958,-26.1 281.9958,-99.7 415.3816,-99.7 415.3816,-26.1 281.9958,-26.1"/>
<text text-anchor="middle" x="348.6887" y="-83.1" font-family="Times,serif" font-size="14.00" fill="#000000">DatabaseTypeToUse</text>
<polyline fill="none" stroke="#000000" points="281.9958,-74.9 415.3816,-74.9 "/>
<polyline fill="none" stroke="#000000" points="281.9958,-50.9 415.3816,-50.9 "/>
<text text-anchor="middle" x="348.6887" y="-34.3" font-family="Times,serif" font-size="14.00" fill="#000000"> </text>
</g>
<!-- 74 -->
<g id="node10" class="node">
<title>74</title>
<polygon fill="none" stroke="#000000" points="221.3499,-221.1 221.3499,-396.3 476.0275,-396.3 476.0275,-221.1 221.3499,-221.1"/>
<text text-anchor="middle" x="348.6887" y="-379.7" font-family="Times,serif" font-size="14.00" fill="#000000">JanisDatabaseConfigurationHelper</text>
<polyline fill="none" stroke="#000000" points="221.3499,-371.5 476.0275,-371.5 "/>
<text text-anchor="start" x="229.3499" y="-354.9" font-family="Times,serif" font-size="14.00" fill="#000000">db_type</text>
<text text-anchor="start" x="229.3499" y="-338.1" font-family="Times,serif" font-size="14.00" fill="#000000">mysql_config : NoneType</text>
<polyline fill="none" stroke="#000000" points="221.3499,-329.9 476.0275,-329.9 "/>
<text text-anchor="start" x="229.3499" y="-313.3" font-family="Times,serif" font-size="14.00" fill="#000000">get_config_for_existing_config()</text>
<text text-anchor="start" x="229.3499" y="-296.5" font-family="Times,serif" font-size="14.00" fill="#000000">get_config_for_filebased_db(path)</text>
<text text-anchor="start" x="229.3499" y="-279.7" font-family="Times,serif" font-size="14.00" fill="#000000">get_config_for_managed_mysql(url)</text>
<text text-anchor="start" x="229.3499" y="-262.9" font-family="Times,serif" font-size="14.00" fill="#000000">get_config_from_script(execution_dir)</text>
<text text-anchor="start" x="229.3499" y="-246.1" font-family="Times,serif" font-size="14.00" fill="#000000">run_delete_database_script(execution_dir)</text>
<text text-anchor="start" x="229.3499" y="-229.3" font-family="Times,serif" font-size="14.00" fill="#000000">which_db_to_use()</text>
</g>
<!-- 34&#45;&gt;74 -->
<g id="edge8" class="edge">
<title>34-&gt;74</title>
<path fill="none" stroke="#000000" d="M348.6887,-99.9649C348.6887,-129.3272 348.6887,-171.7454 348.6887,-210.685"/>
<polygon fill="none" stroke="#000000" points="345.1888,-211.0289 348.6887,-221.029 352.1888,-211.029 345.1888,-211.0289"/>
</g>
<!-- 46 -->
<g id="node2" class="node">
<title>46</title>
<polygon fill="none" stroke="#000000" points="0,-179.1 0,-438.3 203.3774,-438.3 203.3774,-179.1 0,-179.1"/>
<text text-anchor="middle" x="101.6887" y="-421.7" font-family="Times,serif" font-size="14.00" fill="#000000">EnvVariables</text>
<polyline fill="none" stroke="#000000" points="0,-413.5 203.3774,-413.5 "/>
<text text-anchor="start" x="8" y="-396.9" font-family="Times,serif" font-size="14.00" fill="#000000">config_dir : str</text>
<text text-anchor="start" x="8" y="-380.1" font-family="Times,serif" font-size="14.00" fill="#000000">config_path : str</text>
<text text-anchor="start" x="8" y="-363.3" font-family="Times,serif" font-size="14.00" fill="#000000">cromwelljar : str</text>
<text text-anchor="start" x="8" y="-346.5" font-family="Times,serif" font-size="14.00" fill="#000000">db_script_generator : str</text>
<text text-anchor="start" x="8" y="-329.7" font-family="Times,serif" font-size="14.00" fill="#000000">db_script_generator_cleanup : str</text>
<text text-anchor="start" x="8" y="-312.9" font-family="Times,serif" font-size="14.00" fill="#000000">default_template : str</text>
<text text-anchor="start" x="8" y="-296.1" font-family="Times,serif" font-size="14.00" fill="#000000">exec_dir : str</text>
<text text-anchor="start" x="8" y="-279.3" font-family="Times,serif" font-size="14.00" fill="#000000">output_dir : str</text>
<text text-anchor="start" x="8" y="-262.5" font-family="Times,serif" font-size="14.00" fill="#000000">recipe_directory : str</text>
<text text-anchor="start" x="8" y="-245.7" font-family="Times,serif" font-size="14.00" fill="#000000">recipe_paths : str</text>
<text text-anchor="start" x="8" y="-228.9" font-family="Times,serif" font-size="14.00" fill="#000000">search_path : str</text>
<polyline fill="none" stroke="#000000" points="0,-220.7 203.3774,-220.7 "/>
<text text-anchor="start" x="8" y="-204.1" font-family="Times,serif" font-size="14.00" fill="#000000">default()</text>
<text text-anchor="start" x="8" y="-187.3" font-family="Times,serif" font-size="14.00" fill="#000000">resolve(include_default)</text>
</g>
<!-- 60 -->
<g id="node3" class="node">
<title>60</title>
<polygon fill="none" stroke="#000000" points="50.9243,-619.5 50.9243,-693.1 152.4531,-693.1 152.4531,-619.5 50.9243,-619.5"/>
<text text-anchor="middle" x="101.6887" y="-676.5" font-family="Times,serif" font-size="14.00" fill="#000000">HashableEnum</text>
<polyline fill="none" stroke="#000000" points="50.9243,-668.3 152.4531,-668.3 "/>
<polyline fill="none" stroke="#000000" points="50.9243,-644.3 152.4531,-644.3 "/>
<text text-anchor="start" x="58.9243" y="-627.7" font-family="Times,serif" font-size="14.00" fill="#000000">to_yaml()</text>
</g>
<!-- 46&#45;&gt;60 -->
<g id="edge11" class="edge">
<title>46-&gt;60</title>
<path fill="none" stroke="#000000" d="M101.6887,-438.6277C101.6887,-498.4325 101.6887,-565.6529 101.6887,-609.3618"/>
<polygon fill="none" stroke="#000000" points="98.1888,-609.4047 101.6887,-619.4048 105.1888,-609.4048 98.1888,-609.4047"/>
</g>
<!-- 68 -->
<g id="node4" class="node">
<title>68</title>
<polygon fill="none" stroke="#000000" points="677.1599,-476.3 677.1599,-836.3 934.2175,-836.3 934.2175,-476.3 677.1599,-476.3"/>
<text text-anchor="middle" x="805.6887" y="-819.7" font-family="Times,serif" font-size="14.00" fill="#000000">JanisConfiguration</text>
<polyline fill="none" stroke="#000000" points="677.1599,-811.5 934.2175,-811.5 "/>
<text text-anchor="start" x="685.1599" y="-794.9" font-family="Times,serif" font-size="14.00" fill="#000000">call_caching_enabled : bool</text>
<text text-anchor="start" x="685.1599" y="-778.1" font-family="Times,serif" font-size="14.00" fill="#000000">config_dir</text>
<text text-anchor="start" x="685.1599" y="-761.3" font-family="Times,serif" font-size="14.00" fill="#000000">container : NoneType, Docker, Singularity</text>
<text text-anchor="start" x="685.1599" y="-744.5" font-family="Times,serif" font-size="14.00" fill="#000000">cromwell : NoneType, dict</text>
<text text-anchor="start" x="685.1599" y="-727.7" font-family="Times,serif" font-size="14.00" fill="#000000">db_path : NoneType</text>
<text text-anchor="start" x="685.1599" y="-710.9" font-family="Times,serif" font-size="14.00" fill="#000000">digest_cache_location : NoneType</text>
<text text-anchor="start" x="685.1599" y="-694.1" font-family="Times,serif" font-size="14.00" fill="#000000">engine : str</text>
<text text-anchor="start" x="685.1599" y="-677.3" font-family="Times,serif" font-size="14.00" fill="#000000">environment : NoneType, dict</text>
<text text-anchor="start" x="685.1599" y="-660.5" font-family="Times,serif" font-size="14.00" fill="#000000">execution_dir</text>
<text text-anchor="start" x="685.1599" y="-643.7" font-family="Times,serif" font-size="14.00" fill="#000000">notifications : NoneType, dict</text>
<text text-anchor="start" x="685.1599" y="-626.9" font-family="Times,serif" font-size="14.00" fill="#000000">output_dir</text>
<text text-anchor="start" x="685.1599" y="-610.1" font-family="Times,serif" font-size="14.00" fill="#000000">recipes : NoneType, dict</text>
<text text-anchor="start" x="685.1599" y="-593.3" font-family="Times,serif" font-size="14.00" fill="#000000">run_in_background : NoneType</text>
<text text-anchor="start" x="685.1599" y="-576.5" font-family="Times,serif" font-size="14.00" fill="#000000">search_paths : list</text>
<text text-anchor="start" x="685.1599" y="-559.7" font-family="Times,serif" font-size="14.00" fill="#000000">template : dict, NoneType</text>
<polyline fill="none" stroke="#000000" points="677.1599,-551.5 934.2175,-551.5 "/>
<text text-anchor="start" x="685.1599" y="-534.9" font-family="Times,serif" font-size="14.00" fill="#000000">default()</text>
<text text-anchor="start" x="685.1599" y="-518.1" font-family="Times,serif" font-size="14.00" fill="#000000">from_path(path)</text>
<text text-anchor="start" x="685.1599" y="-501.3" font-family="Times,serif" font-size="14.00" fill="#000000">get_value_for_key(d, key, default)</text>
<text text-anchor="start" x="685.1599" y="-484.5" font-family="Times,serif" font-size="14.00" fill="#000000">initial_configuration(path, potential_paths)</text>
</g>
<!-- 46&#45;&gt;68 -->
<g id="edge1" class="edge">
<title>46-&gt;68</title>
<path fill="none" stroke="#000000" d="M203.6526,-432.1457C206.6291,-434.4568 209.6425,-436.68 212.6887,-438.8 352.3845,-536.0204 540.661,-595.3026 667.2637,-626.9133"/>
<polygon fill="none" stroke="#000000" points="666.4832,-630.3256 677.031,-629.3277 668.1631,-623.5302 666.4832,-630.3256"/>
</g>
<!-- 69 -->
<g id="node5" class="node">
<title>69</title>
<polygon fill="none" stroke="#000000" points="1376.9909,-195.9 1376.9909,-421.5 1566.3865,-421.5 1566.3865,-195.9 1376.9909,-195.9"/>
<text text-anchor="middle" x="1471.6887" y="-404.9" font-family="Times,serif" font-size="14.00" fill="#000000">JanisConfigurationCromwell</text>
<polyline fill="none" stroke="#000000" points="1376.9909,-396.7 1566.3865,-396.7 "/>
<text text-anchor="start" x="1384.9909" y="-380.1" font-family="Times,serif" font-size="14.00" fill="#000000">additional_params : NoneType</text>
<text text-anchor="start" x="1384.9909" y="-363.3" font-family="Times,serif" font-size="14.00" fill="#000000">call_caching_method : str</text>
<text text-anchor="start" x="1384.9909" y="-346.5" font-family="Times,serif" font-size="14.00" fill="#000000">config_path : NoneType</text>
<text text-anchor="start" x="1384.9909" y="-329.7" font-family="Times,serif" font-size="14.00" fill="#000000">db_type</text>
<text text-anchor="start" x="1384.9909" y="-312.9" font-family="Times,serif" font-size="14.00" fill="#000000">jar : NoneType</text>
<text text-anchor="start" x="1384.9909" y="-296.1" font-family="Times,serif" font-size="14.00" fill="#000000">memory_mb : NoneType</text>
<text text-anchor="start" x="1384.9909" y="-279.3" font-family="Times,serif" font-size="14.00" fill="#000000">mysql_credentials : NoneType</text>
<text text-anchor="start" x="1384.9909" y="-262.5" font-family="Times,serif" font-size="14.00" fill="#000000">polling_interval : NoneType</text>
<text text-anchor="start" x="1384.9909" y="-245.7" font-family="Times,serif" font-size="14.00" fill="#000000">timeout : int</text>
<text text-anchor="start" x="1384.9909" y="-228.9" font-family="Times,serif" font-size="14.00" fill="#000000">url : NoneType</text>
<polyline fill="none" stroke="#000000" points="1376.9909,-220.7 1566.3865,-220.7 "/>
<text text-anchor="start" x="1384.9909" y="-204.1" font-family="Times,serif" font-size="14.00" fill="#000000">get_database_config_helper()</text>
</g>
<!-- 69&#45;&gt;68 -->
<g id="edge2" class="edge">
<title>69-&gt;68</title>
<path fill="none" stroke="#000000" d="M1389.1937,-421.5694C1382.6138,-427.7725 1375.7631,-433.5887 1368.6887,-438.8 1239.9344,-533.6463 1064.6024,-592.7064 943.9884,-624.9399"/>
<polygon fill="none" stroke="#000000" points="943.084,-621.5587 934.3117,-627.4999 944.8743,-628.3259 943.084,-621.5587"/>
</g>
<!-- 70 -->
<g id="node6" class="node">
<title>70</title>
<polygon fill="none" stroke="#000000" points="493.8696,-254.7 493.8696,-362.7 689.5078,-362.7 689.5078,-254.7 493.8696,-254.7"/>
<text text-anchor="middle" x="591.6887" y="-346.1" font-family="Times,serif" font-size="14.00" fill="#000000">JanisConfigurationEnvironment</text>
<polyline fill="none" stroke="#000000" points="493.8696,-337.9 689.5078,-337.9 "/>
<text text-anchor="start" x="501.8696" y="-321.3" font-family="Times,serif" font-size="14.00" fill="#000000">max_cores : NoneType</text>
<text text-anchor="start" x="501.8696" y="-304.5" font-family="Times,serif" font-size="14.00" fill="#000000">max_duration : NoneType</text>
<text text-anchor="start" x="501.8696" y="-287.7" font-family="Times,serif" font-size="14.00" fill="#000000">max_memory : NoneType</text>
<polyline fill="none" stroke="#000000" points="493.8696,-279.5 689.5078,-279.5 "/>
<text text-anchor="middle" x="591.6887" y="-262.9" font-family="Times,serif" font-size="14.00" fill="#000000"> </text>
</g>
<!-- 70&#45;&gt;68 -->
<g id="edge3" class="edge">
<title>70-&gt;68</title>
<path fill="none" stroke="#000000" d="M625.1262,-363.0125C642.8855,-391.859 665.8851,-429.2171 689.4862,-467.5523"/>
<polygon fill="none" stroke="#000000" points="686.6262,-469.5831 694.8493,-476.2637 692.5871,-465.9132 686.6262,-469.5831"/>
</g>
<!-- 71 -->
<g id="node7" class="node">
<title>71</title>
<polygon fill="none" stroke="#000000" points="707.8724,-254.7 707.8724,-362.7 903.505,-362.7 903.505,-254.7 707.8724,-254.7"/>
<text text-anchor="middle" x="805.6887" y="-346.1" font-family="Times,serif" font-size="14.00" fill="#000000">JanisConfigurationNotifications</text>
<polyline fill="none" stroke="#000000" points="707.8724,-337.9 903.505,-337.9 "/>
<text text-anchor="start" x="715.8724" y="-321.3" font-family="Times,serif" font-size="14.00" fill="#000000">email : NoneType</text>
<text text-anchor="start" x="715.8724" y="-304.5" font-family="Times,serif" font-size="14.00" fill="#000000">from_email : str</text>
<text text-anchor="start" x="715.8724" y="-287.7" font-family="Times,serif" font-size="14.00" fill="#000000">mail_program : NoneType</text>
<polyline fill="none" stroke="#000000" points="707.8724,-279.5 903.505,-279.5 "/>
<text text-anchor="middle" x="805.6887" y="-262.9" font-family="Times,serif" font-size="14.00" fill="#000000"> </text>
</g>
<!-- 71&#45;&gt;68 -->
<g id="edge4" class="edge">
<title>71-&gt;68</title>
<path fill="none" stroke="#000000" d="M805.6887,-363.0125C805.6887,-391.4954 805.6887,-428.2766 805.6887,-466.1031"/>
<polygon fill="none" stroke="#000000" points="802.1888,-466.2637 805.6887,-476.2637 809.1888,-466.2638 802.1888,-466.2637"/>
</g>
<!-- 72 -->
<g id="node8" class="node">
<title>72</title>
<polygon fill="none" stroke="#000000" points="921.7889,-221.1 921.7889,-396.3 1165.5885,-396.3 1165.5885,-221.1 921.7889,-221.1"/>
<text text-anchor="middle" x="1043.6887" y="-379.7" font-family="Times,serif" font-size="14.00" fill="#000000">JanisConfigurationRecipes</text>
<polyline fill="none" stroke="#000000" points="921.7889,-371.5 1165.5885,-371.5 "/>
<text text-anchor="start" x="929.7889" y="-354.9" font-family="Times,serif" font-size="14.00" fill="#000000">VALID_YAML_EXTENSIONS : set</text>
<text text-anchor="start" x="929.7889" y="-338.1" font-family="Times,serif" font-size="14.00" fill="#000000">directories : str, NoneType, bytes</text>
<text text-anchor="start" x="929.7889" y="-321.3" font-family="Times,serif" font-size="14.00" fill="#000000">paths : str, NoneType, bytes</text>
<text text-anchor="start" x="929.7889" y="-304.5" font-family="Times,serif" font-size="14.00" fill="#000000">recipes : dict</text>
<polyline fill="none" stroke="#000000" points="921.7889,-296.3 1165.5885,-296.3 "/>
<text text-anchor="start" x="929.7889" y="-279.7" font-family="Times,serif" font-size="14.00" fill="#000000">get_cascaded_dict_from_yamls(files)</text>
<text text-anchor="start" x="929.7889" y="-262.9" font-family="Times,serif" font-size="14.00" fill="#000000">get_recipe_for_keys(keys)</text>
<text text-anchor="start" x="929.7889" y="-246.1" font-family="Times,serif" font-size="14.00" fill="#000000">load_recipes(force)</text>
<text text-anchor="start" x="929.7889" y="-229.3" font-family="Times,serif" font-size="14.00" fill="#000000">parseable_yaml_filename_if_valid(path)</text>
</g>
<!-- 72&#45;&gt;68 -->
<g id="edge5" class="edge">
<title>72-&gt;68</title>
<path fill="none" stroke="#000000" d="M983.6313,-396.4142C968.5992,-418.3685 951.8885,-442.7746 934.8981,-467.5892"/>
<polygon fill="none" stroke="#000000" points="931.8891,-465.7887 929.1274,-476.0173 937.6649,-469.7434 931.8891,-465.7887"/>
</g>
<!-- 73 -->
<g id="node9" class="node">
<title>73</title>
<polygon fill="none" stroke="#000000" points="1183.9853,-254.7 1183.9853,-362.7 1359.3921,-362.7 1359.3921,-254.7 1183.9853,-254.7"/>
<text text-anchor="middle" x="1271.6887" y="-346.1" font-family="Times,serif" font-size="14.00" fill="#000000">JanisConfigurationTemplate</text>
<polyline fill="none" stroke="#000000" points="1183.9853,-337.9 1359.3921,-337.9 "/>
<text text-anchor="start" x="1191.9853" y="-321.3" font-family="Times,serif" font-size="14.00" fill="#000000">id</text>
<text text-anchor="start" x="1191.9853" y="-304.5" font-family="Times,serif" font-size="14.00" fill="#000000">template</text>
<text text-anchor="start" x="1191.9853" y="-287.7" font-family="Times,serif" font-size="14.00" fill="#000000">templateconfig</text>
<polyline fill="none" stroke="#000000" points="1183.9853,-279.5 1359.3921,-279.5 "/>
<text text-anchor="start" x="1191.9853" y="-262.9" font-family="Times,serif" font-size="14.00" fill="#000000">to_dict()</text>
</g>
<!-- 73&#45;&gt;68 -->
<g id="edge6" class="edge">
<title>73-&gt;68</title>
<path fill="none" stroke="#000000" d="M1238.4314,-362.9646C1221.4001,-387.9655 1199.1171,-416.8782 1174.6887,-438.8 1105.9561,-500.4799 1017.0716,-553.5014 943.762,-591.7499"/>
<polygon fill="none" stroke="#000000" points="941.714,-588.869 934.444,-596.576 944.9334,-595.0848 941.714,-588.869"/>
</g>
<!-- 74&#45;&gt;68 -->
<g id="edge7" class="edge">
<title>74-&gt;68</title>
<path fill="none" stroke="#000000" d="M436.3556,-396.6433C452.0454,-411.1898 468.547,-425.7636 484.6887,-438.8 542.4661,-485.4623 610.0612,-532.3004 668.2816,-570.4965"/>
<polygon fill="none" stroke="#000000" points="666.5164,-573.5241 676.8012,-576.0683 670.3477,-567.6657 666.5164,-573.5241"/>
</g>
<!-- 85 -->
<g id="node11" class="node">
<title>85</title>
<polygon fill="none" stroke="#000000" points="917.8661,-.5 917.8661,-125.3 1057.5113,-125.3 1057.5113,-.5 917.8661,-.5"/>
<text text-anchor="middle" x="987.6887" y="-108.7" font-family="Times,serif" font-size="14.00" fill="#000000">MySqlInstanceConfig</text>
<polyline fill="none" stroke="#000000" points="917.8661,-100.5 1057.5113,-100.5 "/>
<text text-anchor="start" x="925.8661" y="-83.9" font-family="Times,serif" font-size="14.00" fill="#000000">dbname : str</text>
<text text-anchor="start" x="925.8661" y="-67.1" font-family="Times,serif" font-size="14.00" fill="#000000">password</text>
<text text-anchor="start" x="925.8661" y="-50.3" font-family="Times,serif" font-size="14.00" fill="#000000">url</text>
<text text-anchor="start" x="925.8661" y="-33.5" font-family="Times,serif" font-size="14.00" fill="#000000">username</text>
<polyline fill="none" stroke="#000000" points="917.8661,-25.3 1057.5113,-25.3 "/>
<text text-anchor="middle" x="987.6887" y="-8.7" font-family="Times,serif" font-size="14.00" fill="#000000"> </text>
</g>
<!-- 85&#45;&gt;69 -->
<g id="edge9" class="edge">
<title>85-&gt;69</title>
<path fill="none" stroke="#000000" d="M1057.7733,-71.3383C1138.6172,-83.8223 1272.7054,-113.2184 1368.6887,-178.6 1372.9074,-181.4737 1377.0356,-184.5729 1381.0655,-187.8525"/>
<polygon fill="#000000" stroke="#000000" points="1381.2025,-187.9707 1388.3582,-188.8629 1390.2868,-195.8113 1383.1311,-194.9191 1381.2025,-187.9707"/>
<text text-anchor="middle" x="1382.6193" y="-148" font-family="Times,serif" font-size="14.00" fill="#00ff00">mysql_credentials</text>
</g>
<!-- 85&#45;&gt;74 -->
<g id="edge10" class="edge">
<title>85-&gt;74</title>
<path fill="none" stroke="#000000" d="M917.7068,-67.2647C816.5912,-76.0813 626.2526,-102.2423 484.6887,-178.6 467.5416,-187.8489 451.0044,-199.847 435.7231,-212.812"/>
<polygon fill="#000000" stroke="#000000" points="435.4059,-213.0897 433.5258,-220.0514 426.3764,-220.9936 428.2565,-214.0318 435.4059,-213.0897"/>
<text text-anchor="middle" x="587.1845" y="-148" font-family="Times,serif" font-size="14.00" fill="#00ff00">mysql_config</text>
</g>
</g>
</svg>