<?xml version="1.0" encoding="UTF-8" standalone="no"?><!DOCTYPE svg PUBLIC "-//W3C//DTD SVG 1.1//EN" "http://www.w3.org/Graphics/SVG/1.1/DTD/svg11.dtd"><!-- Generated by graphviz version 2.40.1 (20161225.0304)
 --><!-- Title: classes_janis_assistant_container Pages: 1 --><svg xmlns="http://www.w3.org/2000/svg" xmlns:xlink="http://www.w3.org/1999/xlink" width="678pt" height="548pt" viewBox="0.00 0.00 678.05 547.60">
<g id="graph0" class="graph" transform="scale(1 1) rotate(0) translate(4 543.6)">
<title>classes_janis_assistant_container</title>
<polygon fill="#ffffff" stroke="transparent" points="-4,4 -4,-543.6 674.0534,-543.6 674.0534,4 -4,4"/>
<!-- 18 -->
<g id="node1" class="node">
<title>18</title>
<polygon fill="none" stroke="#000000" points="118.2931,-296.7 118.2931,-539.1 335.6817,-539.1 335.6817,-296.7 118.2931,-296.7"/>
<text text-anchor="middle" x="226.9874" y="-522.5" font-family="Times,serif" font-size="14.00" fill="#000000">Container</text>
<polyline fill="none" stroke="#000000" points="118.2931,-514.3 335.6817,-514.3 "/>
<text text-anchor="start" x="126.2931" y="-497.7" font-family="Times,serif" font-size="14.00" fill="#000000">bindpoints : dict</text>
<text text-anchor="start" x="126.2931" y="-480.9" font-family="Times,serif" font-size="14.00" fill="#000000">container</text>
<text text-anchor="start" x="126.2931" y="-464.1" font-family="Times,serif" font-size="14.00" fill="#000000">environment_variables : dict</text>
<text text-anchor="start" x="126.2931" y="-447.3" font-family="Times,serif" font-size="14.00" fill="#000000">exposedports : dict</text>
<text text-anchor="start" x="126.2931" y="-430.5" font-family="Times,serif" font-size="14.00" fill="#000000">instancename : NoneType</text>
<text text-anchor="start" x="126.2931" y="-413.7" font-family="Times,serif" font-size="14.00" fill="#000000">running : bool</text>
<polyline fill="none" stroke="#000000" points="118.2931,-405.5 335.6817,-405.5 "/>
<text text-anchor="start" x="126.2931" y="-388.9" font-family="Times,serif" font-size="14.00" fill="#000000">ensure_downloaded()</text>
<text text-anchor="start" x="126.2931" y="-372.1" font-family="Times,serif" font-size="14.00" fill="#000000">exec_command(command)</text>
<text text-anchor="start" x="126.2931" y="-355.3" font-family="Times,serif" font-size="14.00" fill="#000000">get_container_type()</text>
<text text-anchor="start" x="126.2931" y="-338.5" font-family="Times,serif" font-size="14.00" fill="#000000">start_container()</text>
<text text-anchor="start" x="126.2931" y="-321.7" font-family="Times,serif" font-size="14.00" fill="#000000">stop_container()</text>
<text text-anchor="start" x="126.2931" y="-304.9" font-family="Times,serif" font-size="14.00" fill="#000000">test_available_by_getting_version()</text>
</g>
<!-- 23 -->
<g id="node2" class="node">
<title>23</title>
<polygon fill="none" stroke="#000000" points="0,-93.3 0,-166.9 99.9748,-166.9 99.9748,-93.3 0,-93.3"/>
<text text-anchor="middle" x="49.9874" y="-150.3" font-family="Times,serif" font-size="14.00" fill="#000000">ContainerType</text>
<polyline fill="none" stroke="#000000" points="0,-142.1 99.9748,-142.1 "/>
<polyline fill="none" stroke="#000000" points="0,-118.1 99.9748,-118.1 "/>
<text text-anchor="middle" x="49.9874" y="-101.5" font-family="Times,serif" font-size="14.00" fill="#000000"> </text>
</g>
<!-- 23&#45;&gt;18 -->
<g id="edge2" class="edge">
<title>23-&gt;18</title>
<path fill="none" stroke="#000000" d="M64.2322,-167.0521C75.0962,-193.6904 91.1866,-230.1005 108.9874,-260.2 114.4514,-269.4391 120.3496,-278.7835 126.4934,-288.0685"/>
<polygon fill="none" stroke="#000000" points="123.7216,-290.2194 132.1992,-296.5741 129.5348,-286.3197 123.7216,-290.2194"/>
</g>
<!-- 41 -->
<g id="node3" class="node">
<title>41</title>
<polygon fill="none" stroke="#000000" points="118.2931,-42.5 118.2931,-217.7 335.6817,-217.7 335.6817,-42.5 118.2931,-42.5"/>
<text text-anchor="middle" x="226.9874" y="-201.1" font-family="Times,serif" font-size="14.00" fill="#000000">Docker</text>
<polyline fill="none" stroke="#000000" points="118.2931,-192.9 335.6817,-192.9 "/>
<text text-anchor="start" x="126.2931" y="-176.3" font-family="Times,serif" font-size="14.00" fill="#000000">dockerid : str, NoneType</text>
<text text-anchor="start" x="126.2931" y="-159.5" font-family="Times,serif" font-size="14.00" fill="#000000">running : bool</text>
<polyline fill="none" stroke="#000000" points="118.2931,-151.3 335.6817,-151.3 "/>
<text text-anchor="start" x="126.2931" y="-134.7" font-family="Times,serif" font-size="14.00" fill="#000000">ensure_downloaded()</text>
<text text-anchor="start" x="126.2931" y="-117.9" font-family="Times,serif" font-size="14.00" fill="#000000">exec_command(command)</text>
<text text-anchor="start" x="126.2931" y="-101.1" font-family="Times,serif" font-size="14.00" fill="#000000">get_container_type()</text>
<text text-anchor="start" x="126.2931" y="-84.3" font-family="Times,serif" font-size="14.00" fill="#000000">start_container()</text>
<text text-anchor="start" x="126.2931" y="-67.5" font-family="Times,serif" font-size="14.00" fill="#000000">stop_container()</text>
<text text-anchor="start" x="126.2931" y="-50.7" font-family="Times,serif" font-size="14.00" fill="#000000">test_available_by_getting_version()</text>
</g>
<!-- 41&#45;&gt;18 -->
<g id="edge1" class="edge">
<title>41-&gt;18</title>
<path fill="none" stroke="#000000" d="M226.9874,-218.0133C226.9874,-239.6129 226.9874,-263.2062 226.9874,-286.369"/>
<polygon fill="none" stroke="#000000" points="223.4875,-286.6158 226.9874,-296.6159 230.4875,-286.6159 223.4875,-286.6158"/>
</g>
<!-- 110 -->
<g id="node4" class="node">
<title>110</title>
<polygon fill="none" stroke="#000000" points="353.9214,-.5 353.9214,-259.7 670.0534,-259.7 670.0534,-.5 353.9214,-.5"/>
<text text-anchor="middle" x="511.9874" y="-243.1" font-family="Times,serif" font-size="14.00" fill="#000000">Singularity</text>
<polyline fill="none" stroke="#000000" points="353.9214,-234.9 670.0534,-234.9 "/>
<text text-anchor="start" x="361.9214" y="-218.3" font-family="Times,serif" font-size="14.00" fill="#000000">containerdir : NoneType</text>
<text text-anchor="start" x="361.9214" y="-201.5" font-family="Times,serif" font-size="14.00" fill="#000000">dockerid : NoneType</text>
<text text-anchor="start" x="361.9214" y="-184.7" font-family="Times,serif" font-size="14.00" fill="#000000">instancename</text>
<text text-anchor="start" x="361.9214" y="-167.9" font-family="Times,serif" font-size="14.00" fill="#000000">run_logger : NoneType, ProcessLogger</text>
<polyline fill="none" stroke="#000000" points="353.9214,-159.7 670.0534,-159.7 "/>
<text text-anchor="start" x="361.9214" y="-143.1" font-family="Times,serif" font-size="14.00" fill="#000000">container_path()</text>
<text text-anchor="start" x="361.9214" y="-126.3" font-family="Times,serif" font-size="14.00" fill="#000000">ensure_downloaded()</text>
<text text-anchor="start" x="361.9214" y="-109.5" font-family="Times,serif" font-size="14.00" fill="#000000">exec_command(command)</text>
<text text-anchor="start" x="361.9214" y="-92.7" font-family="Times,serif" font-size="14.00" fill="#000000">get_build_instructions_for(containerlocation, docker)</text>
<text text-anchor="start" x="361.9214" y="-75.9" font-family="Times,serif" font-size="14.00" fill="#000000">get_container_type()</text>
<text text-anchor="start" x="361.9214" y="-59.1" font-family="Times,serif" font-size="14.00" fill="#000000">runlogger_didexit(rc)</text>
<text text-anchor="start" x="361.9214" y="-42.3" font-family="Times,serif" font-size="14.00" fill="#000000">start_container()</text>
<text text-anchor="start" x="361.9214" y="-25.5" font-family="Times,serif" font-size="14.00" fill="#000000">stop_container()</text>
<text text-anchor="start" x="361.9214" y="-8.7" font-family="Times,serif" font-size="14.00" fill="#000000">test_available_by_getting_version()</text>
</g>
<!-- 110&#45;&gt;18 -->
<g id="edge3" class="edge">
<title>110-&gt;18</title>
<path fill="none" stroke="#000000" d="M383.2452,-260.1071C369.9274,-273.5557 356.4479,-287.1676 343.2777,-300.4672"/>
<polygon fill="none" stroke="#000000" points="340.5452,-298.2524 335.9957,-307.8207 345.5191,-303.1779 340.5452,-298.2524"/>
</g>
</g>
</svg>