<?xml version="1.0" encoding="UTF-8" standalone="no"?><!DOCTYPE svg PUBLIC "-//W3C//DTD SVG 1.1//EN" "http://www.w3.org/Graphics/SVG/1.1/DTD/svg11.dtd"><!-- Generated by graphviz version 2.40.1 (20161225.0304)
 --><!-- Title: classes_janis_assistant_pipelinemodifiers Pages: 1 --><svg xmlns="http://www.w3.org/2000/svg" xmlns:xlink="http://www.w3.org/1999/xlink" width="2140pt" height="473pt" viewBox="0.00 0.00 2140.17 473.40">
<g id="graph0" class="graph" transform="scale(1 1) rotate(0) translate(4 469.4)">
<title>classes_janis_assistant_pipelinemodifiers</title>
<polygon fill="#ffffff" stroke="transparent" points="-4,4 -4,-469.4 2136.1684,-469.4 2136.1684,4 -4,4"/>
<!-- 6 -->
<g id="node1" class="node">
<title>6</title>
<polygon fill="none" stroke="#000000" points="1908.5344,-170.7 1908.5344,-295.5 2132.1684,-295.5 2132.1684,-170.7 1908.5344,-170.7"/>
<text text-anchor="middle" x="2020.3514" y="-278.9" font-family="Times,serif" font-size="14.00" fill="#000000">BatchPipelineModifier</text>
<polyline fill="none" stroke="#000000" points="1908.5344,-270.7 2132.1684,-270.7 "/>
<text text-anchor="start" x="1916.5344" y="-254.1" font-family="Times,serif" font-size="14.00" fill="#000000">GROUPBY_FIELDNAME : str</text>
<text text-anchor="start" x="1916.5344" y="-237.3" font-family="Times,serif" font-size="14.00" fill="#000000">batch</text>
<polyline fill="none" stroke="#000000" points="1908.5344,-229.1 2132.1684,-229.1 "/>
<text text-anchor="start" x="1916.5344" y="-212.5" font-family="Times,serif" font-size="14.00" fill="#000000">inputs_modifier(wf, inputs, hints)</text>
<text text-anchor="start" x="1916.5344" y="-195.7" font-family="Times,serif" font-size="14.00" fill="#000000">tool_modifier(tool, inputs, hints)</text>
<text text-anchor="start" x="1916.5344" y="-178.9" font-family="Times,serif" font-size="14.00" fill="#000000">validate_inputs(inputs, batch_inputs)</text>
</g>
<!-- 91 -->
<g id="node9" class="node">
<title>91</title>
<polygon fill="none" stroke="#000000" points="1029.6501,-340.9 1029.6501,-464.9 1275.0527,-464.9 1275.0527,-340.9 1029.6501,-340.9"/>
<text text-anchor="middle" x="1152.3514" y="-448.3" font-family="Times,serif" font-size="14.00" fill="#000000">PipelineModifierBase</text>
<polyline fill="none" stroke="#000000" points="1029.6501,-440.1 1275.0527,-440.1 "/>
<polyline fill="none" stroke="#000000" points="1029.6501,-416.1 1275.0527,-416.1 "/>
<text text-anchor="start" x="1037.6501" y="-399.5" font-family="Times,serif" font-size="14.00" fill="#000000">apply(tool, inputs, hints)</text>
<text text-anchor="start" x="1037.6501" y="-382.7" font-family="Times,serif" font-size="14.00" fill="#000000">apply_many(modifiers, wf, inputs, hints)</text>
<text text-anchor="start" x="1037.6501" y="-365.9" font-family="Times,serif" font-size="14.00" fill="#000000">inputs_modifier(tool, inputs, hints)</text>
<text text-anchor="start" x="1037.6501" y="-349.1" font-family="Times,serif" font-size="14.00" fill="#000000">tool_modifier(tool, inputs, hints)</text>
</g>
<!-- 6&#45;&gt;91 -->
<g id="edge1" class="edge">
<title>6-&gt;91</title>
<path fill="none" stroke="#000000" d="M1921.1502,-295.655C1913.9197,-298.9325 1906.6131,-301.8981 1899.3514,-304.4 1788.8398,-342.4745 1468.5842,-375.3923 1285.2826,-391.7982"/>
<polygon fill="none" stroke="#000000" points="1284.9562,-388.3133 1275.3062,-392.6869 1285.5774,-395.2857 1284.9562,-388.3133"/>
</g>
<!-- 7 -->
<g id="node2" class="node">
<title>7</title>
<polygon fill="none" stroke="#000000" points="1945.4762,-17.3 1945.4762,-108.5 2095.2266,-108.5 2095.2266,-17.3 1945.4762,-17.3"/>
<text text-anchor="middle" x="2020.3514" y="-91.9" font-family="Times,serif" font-size="14.00" fill="#000000">BatchRunRequirements</text>
<polyline fill="none" stroke="#000000" points="1945.4762,-83.7 2095.2266,-83.7 "/>
<text text-anchor="start" x="1953.4762" y="-67.1" font-family="Times,serif" font-size="14.00" fill="#000000">fields</text>
<text text-anchor="start" x="1953.4762" y="-50.3" font-family="Times,serif" font-size="14.00" fill="#000000">groupby</text>
<polyline fill="none" stroke="#000000" points="1945.4762,-42.1 2095.2266,-42.1 "/>
<text text-anchor="middle" x="2020.3514" y="-25.5" font-family="Times,serif" font-size="14.00" fill="#000000"> </text>
</g>
<!-- 7&#45;&gt;6 -->
<g id="edge10" class="edge">
<title>7-&gt;6</title>
<path fill="none" stroke="#000000" d="M2020.3514,-108.5105C2020.3514,-124.3968 2020.3514,-142.6422 2020.3514,-160.1826"/>
<polygon fill="none" stroke="#000000" points="2016.8515,-160.4055 2020.3514,-170.4055 2023.8515,-160.4055 2016.8515,-160.4055"/>
</g>
<!-- 24 -->
<g id="node3" class="node">
<title>24</title>
<polygon fill="none" stroke="#000000" points="0,-170.7 0,-295.5 254.7028,-295.5 254.7028,-170.7 0,-170.7"/>
<text text-anchor="middle" x="127.3514" y="-278.9" font-family="Times,serif" font-size="14.00" fill="#000000">ContigChecker</text>
<polyline fill="none" stroke="#000000" points="0,-270.7 254.7028,-270.7 "/>
<text text-anchor="start" x="8" y="-254.1" font-family="Times,serif" font-size="14.00" fill="#000000">check_file_existence : bool</text>
<polyline fill="none" stroke="#000000" points="0,-245.9 254.7028,-245.9 "/>
<text text-anchor="start" x="8" y="-229.3" font-family="Times,serif" font-size="14.00" fill="#000000">do_bed_fasta_contig_check(tool, inputs)</text>
<text text-anchor="start" x="8" y="-212.5" font-family="Times,serif" font-size="14.00" fill="#000000">get_list_of_contigs_from_bed(bedfile)</text>
<text text-anchor="start" x="8" y="-195.7" font-family="Times,serif" font-size="14.00" fill="#000000">get_list_of_contigs_from_fastafai(fai_idx)</text>
<text text-anchor="start" x="8" y="-178.9" font-family="Times,serif" font-size="14.00" fill="#000000">inputs_modifier(wf, inputs, hints)</text>
</g>
<!-- 24&#45;&gt;91 -->
<g id="edge2" class="edge">
<title>24-&gt;91</title>
<path fill="none" stroke="#000000" d="M238.7688,-295.6093C246.9492,-298.9225 255.193,-301.9066 263.3514,-304.4 401.2437,-346.5434 806.9029,-379.3778 1019.2752,-394.2316"/>
<polygon fill="none" stroke="#000000" points="1019.3329,-397.744 1029.5518,-394.9468 1019.819,-390.7609 1019.3329,-397.744"/>
</g>
<!-- 48 -->
<g id="node4" class="node">
<title>48</title>
<polygon fill="none" stroke="#000000" points="149.7952,-8.9 149.7952,-116.9 514.9076,-116.9 514.9076,-8.9 149.7952,-8.9"/>
<text text-anchor="middle" x="332.3514" y="-100.3" font-family="Times,serif" font-size="14.00" fill="#000000">FileFinderLocatorModifier</text>
<polyline fill="none" stroke="#000000" points="149.7952,-92.1 514.9076,-92.1 "/>
<text text-anchor="start" x="157.7952" y="-75.5" font-family="Times,serif" font-size="14.00" fill="#000000">cache_dir</text>
<text text-anchor="start" x="157.7952" y="-58.7" font-family="Times,serif" font-size="14.00" fill="#000000">source_hints : list</text>
<polyline fill="none" stroke="#000000" points="149.7952,-50.5 514.9076,-50.5 "/>
<text text-anchor="start" x="157.7952" y="-33.9" font-family="Times,serif" font-size="14.00" fill="#000000">determine_appropriate_source_from_hints(tool, inpid, source)</text>
<text text-anchor="start" x="157.7952" y="-17.1" font-family="Times,serif" font-size="14.00" fill="#000000">inputs_modifier(tool, inputs, hints)</text>
</g>
<!-- 49 -->
<g id="node5" class="node">
<title>49</title>
<polygon fill="none" stroke="#000000" points="272.6865,-179.5 272.6865,-286.7 700.0163,-286.7 700.0163,-179.5 272.6865,-179.5"/>
<text text-anchor="middle" x="486.3514" y="-270.1" font-family="Times,serif" font-size="14.00" fill="#000000">FileLocatorModifierBase</text>
<polyline fill="none" stroke="#000000" points="272.6865,-261.9 700.0163,-261.9 "/>
<polyline fill="none" stroke="#000000" points="272.6865,-237.9 700.0163,-237.9 "/>
<text text-anchor="start" x="280.6865" y="-221.3" font-family="Times,serif" font-size="14.00" fill="#000000">generate_file_path(cls, source, dest_dir)</text>
<text text-anchor="start" x="280.6865" y="-204.5" font-family="Times,serif" font-size="14.00" fill="#000000">hash_filename(cls, source, date_modified)</text>
<text text-anchor="start" x="280.6865" y="-187.7" font-family="Times,serif" font-size="14.00" fill="#000000">localise_inputs(inpid, inptype, dest_dir, source, localise_secondary_files)</text>
</g>
<!-- 48&#45;&gt;49 -->
<g id="edge7" class="edge">
<title>48-&gt;49</title>
<path fill="none" stroke="#000000" d="M381.5014,-117.2203C397.214,-134.5858 414.7147,-153.9275 430.8469,-171.7568"/>
<polygon fill="none" stroke="#000000" points="428.3631,-174.2282 437.6678,-179.2951 433.5537,-169.5317 428.3631,-174.2282"/>
</g>
<!-- 49&#45;&gt;91 -->
<g id="edge9" class="edge">
<title>49-&gt;91</title>
<path fill="none" stroke="#000000" d="M648.1342,-286.7197C668.6575,-292.9627 689.4389,-299.0148 709.3514,-304.4 812.7151,-332.3539 931.1836,-358.3881 1019.5879,-376.6624"/>
<polygon fill="none" stroke="#000000" points="1018.9003,-380.0942 1029.4009,-378.6846 1020.3131,-373.2383 1018.9003,-380.0942"/>
</g>
<!-- 62 -->
<g id="node6" class="node">
<title>62</title>
<polygon fill="none" stroke="#000000" points="718.1115,-162.3 718.1115,-303.9 994.5913,-303.9 994.5913,-162.3 718.1115,-162.3"/>
<text text-anchor="middle" x="856.3514" y="-287.3" font-family="Times,serif" font-size="14.00" fill="#000000">InputChecker</text>
<polyline fill="none" stroke="#000000" points="718.1115,-279.1 994.5913,-279.1 "/>
<text text-anchor="start" x="726.1115" y="-262.5" font-family="Times,serif" font-size="14.00" fill="#000000">check_file_existence : bool</text>
<polyline fill="none" stroke="#000000" points="718.1115,-254.3 994.5913,-254.3 "/>
<text text-anchor="start" x="726.1115" y="-237.7" font-family="Times,serif" font-size="14.00" fill="#000000">check_base_with_type(inp, intype, val, suffix)</text>
<text text-anchor="start" x="726.1115" y="-220.9" font-family="Times,serif" font-size="14.00" fill="#000000">check_existence_of_files(wf, inputs)</text>
<text text-anchor="start" x="726.1115" y="-204.1" font-family="Times,serif" font-size="14.00" fill="#000000">check_extensions(inpid, datatype, path)</text>
<text text-anchor="start" x="726.1115" y="-187.3" font-family="Times,serif" font-size="14.00" fill="#000000">check_if_input_exists(fs, path)</text>
<text text-anchor="start" x="726.1115" y="-170.5" font-family="Times,serif" font-size="14.00" fill="#000000">inputs_modifier(wf, inputs, hints)</text>
</g>
<!-- 62&#45;&gt;91 -->
<g id="edge3" class="edge">
<title>62-&gt;91</title>
<path fill="none" stroke="#000000" d="M980.167,-304.1266C998.4102,-314.5918 1017.1573,-325.3461 1035.2587,-335.7299"/>
<polygon fill="none" stroke="#000000" points="1033.6723,-338.8548 1044.088,-340.7948 1037.1554,-332.7829 1033.6723,-338.8548"/>
</g>
<!-- 64 -->
<g id="node7" class="node">
<title>64</title>
<polygon fill="none" stroke="#000000" points="1012.568,-187.5 1012.568,-278.7 1292.1348,-278.7 1292.1348,-187.5 1012.568,-187.5"/>
<text text-anchor="middle" x="1152.3514" y="-262.1" font-family="Times,serif" font-size="14.00" fill="#000000">InputFileQualifierModifier</text>
<polyline fill="none" stroke="#000000" points="1012.568,-253.9 1292.1348,-253.9 "/>
<text text-anchor="start" x="1020.568" y="-237.3" font-family="Times,serif" font-size="14.00" fill="#000000">cwd</text>
<polyline fill="none" stroke="#000000" points="1012.568,-229.1 1292.1348,-229.1 "/>
<text text-anchor="start" x="1020.568" y="-212.5" font-family="Times,serif" font-size="14.00" fill="#000000">fully_qualify_filename_array_or_single(value)</text>
<text text-anchor="start" x="1020.568" y="-195.7" font-family="Times,serif" font-size="14.00" fill="#000000">inputs_modifier(wf, inputs, hints)</text>
</g>
<!-- 64&#45;&gt;91 -->
<g id="edge4" class="edge">
<title>64-&gt;91</title>
<path fill="none" stroke="#000000" d="M1152.3514,-279.0503C1152.3514,-294.8962 1152.3514,-313.0533 1152.3514,-330.4915"/>
<polygon fill="none" stroke="#000000" points="1148.8515,-330.6529 1152.3514,-340.6529 1155.8515,-330.6529 1148.8515,-330.6529"/>
</g>
<!-- 65 -->
<g id="node8" class="node">
<title>65</title>
<polygon fill="none" stroke="#000000" points="1309.9327,-179.1 1309.9327,-287.1 1672.7701,-287.1 1672.7701,-179.1 1309.9327,-179.1"/>
<text text-anchor="middle" x="1491.3514" y="-270.5" font-family="Times,serif" font-size="14.00" fill="#000000">InputTransformerModifier</text>
<polyline fill="none" stroke="#000000" points="1309.9327,-262.3 1672.7701,-262.3 "/>
<text text-anchor="start" x="1317.9327" y="-245.7" font-family="Times,serif" font-size="14.00" fill="#000000">cache_dir</text>
<polyline fill="none" stroke="#000000" points="1309.9327,-237.5 1672.7701,-237.5 "/>
<text text-anchor="start" x="1317.9327" y="-220.9" font-family="Times,serif" font-size="14.00" fill="#000000">check_input_for_correctness(inpid, dt, value)</text>
<text text-anchor="start" x="1317.9327" y="-204.1" font-family="Times,serif" font-size="14.00" fill="#000000">inputs_modifier(tool, inputs, hints)</text>
<text text-anchor="start" x="1317.9327" y="-187.3" font-family="Times,serif" font-size="14.00" fill="#000000">try_get_outputs_for(inpid, wf, inputs, output_dir, description)</text>
</g>
<!-- 65&#45;&gt;91 -->
<g id="edge6" class="edge">
<title>65-&gt;91</title>
<path fill="none" stroke="#000000" d="M1383.1576,-287.2926C1351.7191,-303.0397 1317.0285,-320.4157 1284.3039,-336.807"/>
<polygon fill="none" stroke="#000000" points="1282.504,-333.7939 1275.1304,-341.4018 1285.639,-340.0527 1282.504,-333.7939"/>
</g>
<!-- 97 -->
<g id="node10" class="node">
<title>97</title>
<polygon fill="none" stroke="#000000" points="533.3577,-25.7 533.3577,-100.1 745.3451,-100.1 745.3451,-25.7 533.3577,-25.7"/>
<text text-anchor="middle" x="639.3514" y="-83.5" font-family="Times,serif" font-size="14.00" fill="#000000">RemoteFileLocatorModifier</text>
<polyline fill="none" stroke="#000000" points="533.3577,-75.3 745.3451,-75.3 "/>
<text text-anchor="start" x="541.3577" y="-58.7" font-family="Times,serif" font-size="14.00" fill="#000000">cache_dir</text>
<polyline fill="none" stroke="#000000" points="533.3577,-50.5 745.3451,-50.5 "/>
<text text-anchor="start" x="541.3577" y="-33.9" font-family="Times,serif" font-size="14.00" fill="#000000">inputs_modifier(tool, inputs, hints)</text>
</g>
<!-- 97&#45;&gt;49 -->
<g id="edge8" class="edge">
<title>97-&gt;49</title>
<path fill="none" stroke="#000000" d="M605.7749,-100.2511C586.9631,-121.1777 563.0313,-147.7999 541.5386,-171.7088"/>
<polygon fill="none" stroke="#000000" points="538.7381,-169.5887 534.6557,-179.3654 543.9439,-174.2684 538.7381,-169.5887"/>
</g>
<!-- 144 -->
<g id="node11" class="node">
<title>144</title>
<polygon fill="none" stroke="#000000" points="1713.9236,-.5 1713.9236,-125.3 1866.7792,-125.3 1866.7792,-.5 1713.9236,-.5"/>
<text text-anchor="middle" x="1790.3514" y="-108.7" font-family="Times,serif" font-size="14.00" fill="#000000">ValidationRequirements</text>
<polyline fill="none" stroke="#000000" points="1713.9236,-100.5 1866.7792,-100.5 "/>
<text text-anchor="start" x="1721.9236" y="-83.9" font-family="Times,serif" font-size="14.00" fill="#000000">fields</text>
<text text-anchor="start" x="1721.9236" y="-67.1" font-family="Times,serif" font-size="14.00" fill="#000000">intervals : NoneType</text>
<text text-anchor="start" x="1721.9236" y="-50.3" font-family="Times,serif" font-size="14.00" fill="#000000">reference</text>
<text text-anchor="start" x="1721.9236" y="-33.5" font-family="Times,serif" font-size="14.00" fill="#000000">truthVCF</text>
<polyline fill="none" stroke="#000000" points="1713.9236,-25.3 1866.7792,-25.3 "/>
<text text-anchor="middle" x="1790.3514" y="-8.7" font-family="Times,serif" font-size="14.00" fill="#000000"> </text>
</g>
<!-- 145 -->
<g id="node12" class="node">
<title>145</title>
<polygon fill="none" stroke="#000000" points="1690.58,-195.9 1690.58,-270.3 1890.1228,-270.3 1890.1228,-195.9 1690.58,-195.9"/>
<text text-anchor="middle" x="1790.3514" y="-253.7" font-family="Times,serif" font-size="14.00" fill="#000000">ValidatorPipelineModifier</text>
<polyline fill="none" stroke="#000000" points="1690.58,-245.5 1890.1228,-245.5 "/>
<text text-anchor="start" x="1698.58" y="-228.9" font-family="Times,serif" font-size="14.00" fill="#000000">validation</text>
<polyline fill="none" stroke="#000000" points="1690.58,-220.7 1890.1228,-220.7 "/>
<text text-anchor="start" x="1698.58" y="-204.1" font-family="Times,serif" font-size="14.00" fill="#000000">tool_modifier(tool, inputs, hints)</text>
</g>
<!-- 144&#45;&gt;145 -->
<g id="edge11" class="edge">
<title>144-&gt;145</title>
<path fill="none" stroke="#000000" d="M1790.3514,-125.3098C1790.3514,-145.1619 1790.3514,-166.7914 1790.3514,-185.4294"/>
<polygon fill="none" stroke="#000000" points="1786.8515,-185.4458 1790.3514,-195.4459 1793.8515,-185.4459 1786.8515,-185.4458"/>
</g>
<!-- 145&#45;&gt;91 -->
<g id="edge5" class="edge">
<title>145-&gt;91</title>
<path fill="none" stroke="#000000" d="M1742.443,-270.3212C1724.1961,-282.8726 1702.6516,-295.8509 1681.3514,-304.4 1552.4064,-356.1539 1394.7316,-381.0194 1285.2344,-392.7708"/>
<polygon fill="none" stroke="#000000" points="1284.7019,-389.3073 1275.1225,-393.8334 1285.4336,-396.269 1284.7019,-389.3073"/>
</g>
</g>
</svg>