<?xml version="1.0" encoding="UTF-8" standalone="no"?><!DOCTYPE svg PUBLIC "-//W3C//DTD SVG 1.1//EN" "http://www.w3.org/Graphics/SVG/1.1/DTD/svg11.dtd"><!-- Generated by graphviz version 2.40.1 (20161225.0304)
 --><!-- Title: classes_janis_assistant_templates Pages: 1 --><svg xmlns="http://www.w3.org/2000/svg" xmlns:xlink="http://www.w3.org/1999/xlink" width="977pt" height="726pt" viewBox="0.00 0.00 976.75 726.20">
<g id="graph0" class="graph" transform="scale(1 1) rotate(0) translate(4 722.2)">
<title>classes_janis_assistant_templates</title>
<polygon fill="#ffffff" stroke="transparent" points="-4,4 -4,-722.2 972.7463,-722.2 972.7463,4 -4,4"/>
<!-- 47 -->
<g id="node1" class="node">
<title>47</title>
<polygon fill="none" stroke="#000000" points="153.9053,-391.3 153.9053,-717.7 768.6839,-717.7 768.6839,-391.3 153.9053,-391.3"/>
<text text-anchor="middle" x="461.2946" y="-701.1" font-family="Times,serif" font-size="14.00" fill="#000000">EnvironmentTemplate</text>
<polyline fill="none" stroke="#000000" points="153.9053,-692.9 768.6839,-692.9 "/>
<text text-anchor="start" x="161.9053" y="-676.3" font-family="Times,serif" font-size="14.00" fill="#000000">can_run_in_foreground : bool</text>
<text text-anchor="start" x="161.9053" y="-659.5" font-family="Times,serif" font-size="14.00" fill="#000000">containertype : Docker</text>
<text text-anchor="start" x="161.9053" y="-642.7" font-family="Times,serif" font-size="14.00" fill="#000000">ignore_init_keys : list</text>
<text text-anchor="start" x="161.9053" y="-625.9" font-family="Times,serif" font-size="14.00" fill="#000000">max_cores : NoneType</text>
<text text-anchor="start" x="161.9053" y="-609.1" font-family="Times,serif" font-size="14.00" fill="#000000">max_duration : NoneType</text>
<text text-anchor="start" x="161.9053" y="-592.3" font-family="Times,serif" font-size="14.00" fill="#000000">max_ram : NoneType</text>
<text text-anchor="start" x="161.9053" y="-575.5" font-family="Times,serif" font-size="14.00" fill="#000000">run_in_background : NoneType</text>
<polyline fill="none" stroke="#000000" points="153.9053,-567.3 768.6839,-567.3 "/>
<text text-anchor="start" x="161.9053" y="-550.7" font-family="Times,serif" font-size="14.00" fill="#000000">engine_config(engine, job)</text>
<text text-anchor="start" x="161.9053" y="-533.9" font-family="Times,serif" font-size="14.00" fill="#000000">get_job_analysis_from(job)</text>
<text text-anchor="start" x="161.9053" y="-517.1" font-family="Times,serif" font-size="14.00" fill="#000000">path_is_valid(path)</text>
<text text-anchor="start" x="161.9053" y="-500.3" font-family="Times,serif" font-size="14.00" fill="#000000">post_configuration_hook(configuration)</text>
<text text-anchor="start" x="161.9053" y="-483.5" font-family="Times,serif" font-size="14.00" fill="#000000">postjanis_failure_hook()</text>
<text text-anchor="start" x="161.9053" y="-466.7" font-family="Times,serif" font-size="14.00" fill="#000000">postjanis_success_hook()</text>
<text text-anchor="start" x="161.9053" y="-449.9" font-family="Times,serif" font-size="14.00" fill="#000000">prejanis_hook()</text>
<text text-anchor="start" x="161.9053" y="-433.1" font-family="Times,serif" font-size="14.00" fill="#000000">prepare_status_update_email(status, metadata, additional_information)</text>
<text text-anchor="start" x="161.9053" y="-416.3" font-family="Times,serif" font-size="14.00" fill="#000000">submit_detatched_resume(wid, command, scriptdir, logsdir, config, capture_output, log_output_to_stdout)</text>
<text text-anchor="start" x="161.9053" y="-399.5" font-family="Times,serif" font-size="14.00" fill="#000000">validate_paths(obj)</text>
</g>
<!-- 61 -->
<g id="node2" class="node">
<title>61</title>
<polygon fill="none" stroke="#000000" points="791.8429,-34.1 791.8429,-142.1 968.7463,-142.1 968.7463,-34.1 791.8429,-34.1"/>
<text text-anchor="middle" x="880.2946" y="-125.5" font-family="Times,serif" font-size="14.00" fill="#000000">InitArgParser</text>
<polyline fill="none" stroke="#000000" points="791.8429,-117.3 968.7463,-117.3 "/>
<text text-anchor="start" x="799.8429" y="-100.7" font-family="Times,serif" font-size="14.00" fill="#000000">required_args : set</text>
<text text-anchor="start" x="799.8429" y="-83.9" font-family="Times,serif" font-size="14.00" fill="#000000">templatename</text>
<polyline fill="none" stroke="#000000" points="791.8429,-75.7 968.7463,-75.7 "/>
<text text-anchor="start" x="799.8429" y="-59.1" font-family="Times,serif" font-size="14.00" fill="#000000">error(message)</text>
<text text-anchor="start" x="799.8429" y="-42.3" font-family="Times,serif" font-size="14.00" fill="#000000">parse_args(args, namespace)</text>
</g>
<!-- 121 -->
<g id="node8" class="node">
<title>121</title>
<polygon fill="none" stroke="#000000" points="751.8696,-212.7 751.8696,-354.3 876.7196,-354.3 876.7196,-212.7 751.8696,-212.7"/>
<text text-anchor="middle" x="814.2946" y="-337.7" font-family="Times,serif" font-size="14.00" fill="#000000">TemplateInput</text>
<polyline fill="none" stroke="#000000" points="751.8696,-329.5 876.7196,-329.5 "/>
<text text-anchor="start" x="759.8696" y="-312.9" font-family="Times,serif" font-size="14.00" fill="#000000">default : NoneType</text>
<text text-anchor="start" x="759.8696" y="-296.1" font-family="Times,serif" font-size="14.00" fill="#000000">doc : NoneType</text>
<text text-anchor="start" x="759.8696" y="-279.3" font-family="Times,serif" font-size="14.00" fill="#000000">identifier</text>
<text text-anchor="start" x="759.8696" y="-262.5" font-family="Times,serif" font-size="14.00" fill="#000000">optional</text>
<text text-anchor="start" x="759.8696" y="-245.7" font-family="Times,serif" font-size="14.00" fill="#000000">type</text>
<polyline fill="none" stroke="#000000" points="751.8696,-237.5 876.7196,-237.5 "/>
<text text-anchor="start" x="759.8696" y="-220.9" font-family="Times,serif" font-size="14.00" fill="#000000">id()</text>
</g>
<!-- 61&#45;&gt;121 -->
<g id="edge7" class="edge">
<title>61-&gt;121</title>
<path fill="none" stroke="#000000" d="M861.9976,-142.2703C855.6743,-160.9909 848.4458,-182.3917 841.5608,-202.7754"/>
<polygon fill="none" stroke="#000000" points="838.2047,-201.7746 838.3205,-212.3688 844.8366,-204.0147 838.2047,-201.7746"/>
</g>
<!-- 81 -->
<g id="node3" class="node">
<title>81</title>
<polygon fill="none" stroke="#000000" points="0,-34.1 0,-142.1 258.5892,-142.1 258.5892,-34.1 0,-34.1"/>
<text text-anchor="middle" x="129.2946" y="-125.5" font-family="Times,serif" font-size="14.00" fill="#000000">LocalSingularityTemplate</text>
<polyline fill="none" stroke="#000000" points="0,-117.3 258.5892,-117.3 "/>
<text text-anchor="start" x="8" y="-100.7" font-family="Times,serif" font-size="14.00" fill="#000000">ignore_init_keys : list</text>
<polyline fill="none" stroke="#000000" points="0,-92.5 258.5892,-92.5 "/>
<text text-anchor="start" x="8" y="-75.9" font-family="Times,serif" font-size="14.00" fill="#000000">cromwell(janis_configuration)</text>
<text text-anchor="start" x="8" y="-59.1" font-family="Times,serif" font-size="14.00" fill="#000000">cwltool(janis_configuration)</text>
<text text-anchor="start" x="8" y="-42.3" font-family="Times,serif" font-size="14.00" fill="#000000">engine_config(engine, janis_configuration)</text>
</g>
<!-- 111 -->
<g id="node6" class="node">
<title>111</title>
<polygon fill="none" stroke="#000000" points="318.7728,-229.5 318.7728,-337.5 603.8164,-337.5 603.8164,-229.5 318.7728,-229.5"/>
<text text-anchor="middle" x="461.2946" y="-320.9" font-family="Times,serif" font-size="14.00" fill="#000000">SingularityEnvironmentTemplate</text>
<polyline fill="none" stroke="#000000" points="318.7728,-312.7 603.8164,-312.7 "/>
<text text-anchor="start" x="326.7728" y="-296.1" font-family="Times,serif" font-size="14.00" fill="#000000">singularity_build_instructions</text>
<text text-anchor="start" x="326.7728" y="-279.3" font-family="Times,serif" font-size="14.00" fill="#000000">singularity_container_dir : str, NoneType, bytes</text>
<text text-anchor="start" x="326.7728" y="-262.5" font-family="Times,serif" font-size="14.00" fill="#000000">singularity_load_instructions : NoneType</text>
<polyline fill="none" stroke="#000000" points="318.7728,-254.3 603.8164,-254.3 "/>
<text text-anchor="middle" x="461.2946" y="-237.7" font-family="Times,serif" font-size="14.00" fill="#000000"> </text>
</g>
<!-- 81&#45;&gt;111 -->
<g id="edge3" class="edge">
<title>81-&gt;111</title>
<path fill="none" stroke="#000000" d="M212.3257,-142.2971C230.3198,-153.7075 249.3401,-165.518 267.2946,-176.2 294.3064,-192.2706 323.8257,-209.0069 351.5043,-224.3488"/>
<polygon fill="none" stroke="#000000" points="349.9756,-227.503 360.4206,-229.2784 353.3625,-221.3769 349.9756,-227.503"/>
</g>
<!-- 82 -->
<g id="node4" class="node">
<title>82</title>
<polygon fill="none" stroke="#000000" points="133.486,-229.5 133.486,-337.5 301.1032,-337.5 301.1032,-229.5 133.486,-229.5"/>
<text text-anchor="middle" x="217.2946" y="-320.9" font-family="Times,serif" font-size="14.00" fill="#000000">LocalTemplate</text>
<polyline fill="none" stroke="#000000" points="133.486,-312.7 301.1032,-312.7 "/>
<text text-anchor="start" x="141.486" y="-296.1" font-family="Times,serif" font-size="14.00" fill="#000000">ignore_init_keys : list</text>
<polyline fill="none" stroke="#000000" points="133.486,-287.9 301.1032,-287.9 "/>
<text text-anchor="start" x="141.486" y="-271.3" font-family="Times,serif" font-size="14.00" fill="#000000">cromwell(job)</text>
<text text-anchor="start" x="141.486" y="-254.5" font-family="Times,serif" font-size="14.00" fill="#000000">cwltool(job)</text>
<text text-anchor="start" x="141.486" y="-237.7" font-family="Times,serif" font-size="14.00" fill="#000000">engine_config(engine, job)</text>
</g>
<!-- 82&#45;&gt;47 -->
<g id="edge1" class="edge">
<title>82-&gt;47</title>
<path fill="none" stroke="#000000" d="M266.0852,-337.6896C278.5676,-351.5532 292.6724,-367.2188 307.4474,-383.6287"/>
<polygon fill="none" stroke="#000000" points="304.9873,-386.1272 314.2796,-391.2169 310.1894,-381.4434 304.9873,-386.1272"/>
</g>
<!-- 90 -->
<g id="node5" class="node">
<title>90</title>
<polygon fill="none" stroke="#000000" points="276.331,-8.9 276.331,-167.3 516.2582,-167.3 516.2582,-8.9 276.331,-8.9"/>
<text text-anchor="middle" x="396.2946" y="-150.7" font-family="Times,serif" font-size="14.00" fill="#000000">PbsSingularityTemplate</text>
<polyline fill="none" stroke="#000000" points="276.331,-142.5 516.2582,-142.5 "/>
<text text-anchor="start" x="284.331" y="-125.9" font-family="Times,serif" font-size="14.00" fill="#000000">catch_pbs_errors : bool</text>
<text text-anchor="start" x="284.331" y="-109.1" font-family="Times,serif" font-size="14.00" fill="#000000">ignore_init_keys : list</text>
<text text-anchor="start" x="284.331" y="-92.3" font-family="Times,serif" font-size="14.00" fill="#000000">intermediate_execution_dir : NoneType</text>
<text text-anchor="start" x="284.331" y="-75.5" font-family="Times,serif" font-size="14.00" fill="#000000">queues : NoneType</text>
<text text-anchor="start" x="284.331" y="-58.7" font-family="Times,serif" font-size="14.00" fill="#000000">send_job_emails : bool</text>
<polyline fill="none" stroke="#000000" points="276.331,-50.5 516.2582,-50.5 "/>
<text text-anchor="start" x="284.331" y="-33.9" font-family="Times,serif" font-size="14.00" fill="#000000">cromwell(job)</text>
<text text-anchor="start" x="284.331" y="-17.1" font-family="Times,serif" font-size="14.00" fill="#000000">engine_config(engine, job)</text>
</g>
<!-- 90&#45;&gt;111 -->
<g id="edge5" class="edge">
<title>90-&gt;111</title>
<path fill="none" stroke="#000000" d="M422.7326,-167.5767C428.5207,-184.9766 434.5748,-203.176 440.1249,-219.8606"/>
<polygon fill="none" stroke="#000000" points="436.8511,-221.1077 443.3287,-229.4917 443.4932,-218.8981 436.8511,-221.1077"/>
</g>
<!-- 111&#45;&gt;47 -->
<g id="edge2" class="edge">
<title>111-&gt;47</title>
<path fill="none" stroke="#000000" d="M461.2946,-337.6896C461.2946,-350.8038 461.2946,-365.5305 461.2946,-380.9743"/>
<polygon fill="none" stroke="#000000" points="457.7947,-381.2169 461.2946,-391.2169 464.7947,-381.217 457.7947,-381.2169"/>
</g>
<!-- 112 -->
<g id="node7" class="node">
<title>112</title>
<polygon fill="none" stroke="#000000" points="534.331,-.5 534.331,-175.7 774.2582,-175.7 774.2582,-.5 534.331,-.5"/>
<text text-anchor="middle" x="654.2946" y="-159.1" font-family="Times,serif" font-size="14.00" fill="#000000">SlurmSingularityTemplate</text>
<polyline fill="none" stroke="#000000" points="534.331,-150.9 774.2582,-150.9 "/>
<text text-anchor="start" x="542.331" y="-134.3" font-family="Times,serif" font-size="14.00" fill="#000000">catch_slurm_errors : bool</text>
<text text-anchor="start" x="542.331" y="-117.5" font-family="Times,serif" font-size="14.00" fill="#000000">ignore_init_keys : list</text>
<text text-anchor="start" x="542.331" y="-100.7" font-family="Times,serif" font-size="14.00" fill="#000000">intermediate_execution_dir : NoneType</text>
<text text-anchor="start" x="542.331" y="-83.9" font-family="Times,serif" font-size="14.00" fill="#000000">queues : list</text>
<text text-anchor="start" x="542.331" y="-67.1" font-family="Times,serif" font-size="14.00" fill="#000000">sbatch : str</text>
<text text-anchor="start" x="542.331" y="-50.3" font-family="Times,serif" font-size="14.00" fill="#000000">send_job_emails : bool</text>
<polyline fill="none" stroke="#000000" points="534.331,-42.1 774.2582,-42.1 "/>
<text text-anchor="start" x="542.331" y="-25.5" font-family="Times,serif" font-size="14.00" fill="#000000">cromwell(job)</text>
<text text-anchor="start" x="542.331" y="-8.7" font-family="Times,serif" font-size="14.00" fill="#000000">engine_config(engine, job)</text>
</g>
<!-- 112&#45;&gt;111 -->
<g id="edge4" class="edge">
<title>112-&gt;111</title>
<path fill="none" stroke="#000000" d="M567.6742,-175.7975C552.173,-191.4915 536.3281,-207.5334 521.7622,-222.2804"/>
<polygon fill="none" stroke="#000000" points="519.2587,-219.8345 514.7215,-229.4087 524.2389,-224.7536 519.2587,-219.8345"/>
</g>
<!-- 121&#45;&gt;47 -->
<g id="edge6" class="edge">
<title>121-&gt;47</title>
<path fill="none" stroke="#000000" d="M751.592,-331.6371C731.2119,-347.2831 707.3028,-365.6381 682.1056,-384.9822"/>
<polygon fill="none" stroke="#000000" points="679.6831,-382.4295 673.8823,-391.2953 683.9457,-387.982 679.6831,-382.4295"/>
</g>
</g>
</svg>